# xmcd CD database file
#
# Track frame offsets:
#	150
#	12022
#	23611
#	36593
#	50013
#	62903
#	75916
#	89240
#	105170
#	120636
#	134332
#	147137
#	159820
#	174851
#	188318
#	201325
#	213273
#	229830
#	243888
#	256018
#	268137
#	278447
#	290126
#	302569
#
# Disc length: 4215 seconds
#
# Revision: 0
# Processed by: cddbd v1.4PL0 Copyright (c) Steve Scherf et al.
# Submitted via: CDex 1.50beta10
#
DISCID=3e107518
DTITLE=Cliff Carlisle - Blues Yodeller and Steel Guitar Wizard
DYEAR=1996
DGENRE=Country
TTITLE0=Memphis Yodel 
TTITLE1=No Daddy Blues 
TTITLE2=Hobo Blues 
TTITLE3=Columbus Stockade Blues 
TTITLE4=Shanghai Rooster Yodel 
TTITLE5=I Don't Mind 
TTITLE6=High Steppin' Mama 
TTITLE7=It Ain't No Fault Of Mine 
TTITLE8=That Nasty Swing 
TTITLE9=Get Her By The Tail On A Down Hill Grade 
TTITLE10=My Lovin Kathleen 
TTITLE11=Wild Cat Woman And A Tom Cat Man, A 
TTITLE12=You'll Miss Me When I'm Gone (Just Because) 
TTITLE13=Rambling Yodeler 
TTITLE14=When The Evening Sun Goes Down 
TTITLE15=Handsome Blues 
TTITLE16=My Rockin' Mama 
TTITLE17=Pay Day Fight 
TTITLE18=My Travelin' Night 
TTITLE19=Trouble Minded Blues 
TTITLE20=Pan American Man 
TTITLE21=I'm Saving Saturday Night For You 
TTITLE22=Footprints In The Snow 
TTITLE23=Black Jack David 
EXTD=YEAR: 1996
EXTT0=
EXTT1=
EXTT2=
EXTT3=
EXTT4=
EXTT5=
EXTT6=
EXTT7=
EXTT8=
EXTT9=
EXTT10=
EXTT11=
EXTT12=
EXTT13=
EXTT14=
EXTT15=
EXTT16=
EXTT17=
EXTT18=
EXTT19=
EXTT20=
EXTT21=
EXTT22=
EXTT23=
PLAYORDER=
